# AST/ASF file generated using VICON BodyLanguage
# -----------------------------------------------
:version 1.10
:name VICON
:units
  mass 1.0
  length 0.45
  angle deg
:documentation
   .ast/.asf automatically generated from VICON data using
   VICON BodyBuilder and BodyLanguage model FoxedUp or BRILLIANT.MOD
:root
   order TX TY TZ RX RY RZ
   axis XYZ
   position 0 0 0  
   orientation 0 0 0 
:bonedata
  begin
     id 1 
     name lhipjoint
     direction 0.558404 -0.748506 0.357664 
     length 2.4234 
     axis 0 0 0  XYZ
  end
  begin
     id 2 
     name lfemur
     direction 0.34202 -0.939693 0  
     length 7.14567  
     axis 0 0 20  XYZ
    dof rx ry rz
    limits (-160.0 20.0)
           (-70.0 70.0)
           (-60.0 70.0)
  end
  begin
     id 3 
     name ltibia
     direction 0.34202 -0.939693 0   
     length 8.13956   
     axis 0 0 20   XYZ
    dof rx
    limits (-10.0 170.0)
  end
  begin
     id 4 
     name lfoot
     direction 0.0791314 -0.217412 0.972867   
     length 2.00134   
     axis -90 7.62852e-016 20   XYZ
    dof rx rz
    limits (-45.0 90.0)
           (-70.0 20.0)
  end
  begin
     id 5 
     name ltoes
     direction 1.53547e-011 -4.21922e-011 1   
     length 1.00735   
     axis -90 7.62852e-016 20   XYZ
    dof rx
    limits (-90.0 20.0)
  end
  begin
     id 6 
     name rhipjoint
     direction -0.496392 -0.78327 0.374276   
     length 2.31584  
     axis 0 0 0  XYZ 
  end
  begin
     id 7 
     name rfemur
     direction -0.34202 -0.939693 0   
     length 7.47417   
     axis 0 0 -20   XYZ
    dof rx ry rz
    limits (-160.0 20.0)
           (-70.0 70.0)
           (-70.0 60.0)
  end
  begin
     id 8 
     name rtibia
     direction -0.34202 -0.939693 0   
     length 7.69071   
     axis 0 0 -20   XYZ
    dof rx
    limits (-10.0 170.0)
 end
 begin
     id 9 
     name rfoot
     direction -0.103069 -0.28318 0.953512   
     length 2.16135  
     axis -90 -7.62852e-016 -20   XYZ
    dof rx rz
    limits (-45.0 90.0)
           (-20.0 70.0)
  end
  begin
     id 10 
     name rtoes
     direction -1.53581e-011 -4.21904e-011 1   
     length 1.07867   
     axis -90 -7.62852e-016 -20   XYZ
    dof rx
    limits (-90.0 20.0)
  end
  begin
     id 11 
     name lowerback
     direction -0.0258961 0.994776 -0.0987407   
     length 2.19412   
     axis 0 0 0   XYZ
    dof rx ry rz
    limits (-20.0 45.0)
           (-30.0 30.0)
           (-30.0 30.0)
  end
  begin
     id 12 
     name upperback
     direction 0.0402454 0.999185 0.00320666   
     length 2.18445   
     axis 0 0 0   XYZ
    dof rx ry rz
    limits (-20.0 45.0)
           (-30.0 30.0)
           (-30.0 30.0)
  end
  begin
     id 13 
     name thorax
     direction 0.0519376 0.997415 0.0496558   
     length 2.21487   
     axis 0 0 0   XYZ
    dof rx ry rz
    limits (-20.0 45.0)
           (-30.0 30.0)
           (-30.0 30.0)
  end
  begin
     id 14 
     name lowerneck
     direction -0.0921276 0.983211 0.157506   
     length 1.61201   
     axis 0 0 0   XYZ
    dof rx ry rz
    limits (-20.0 45.0)
           (-30.0 30.0)
           (-30.0 30.0)
  end
  begin
     id 15 
     name upperneck
     direction 0.0820814 0.98162 -0.172292   
     length 1.65275   
     axis 0 0 0   XYZ
    dof rx ry rz
    limits (-20.0 45.0)
           (-30.0 30.0)
           (-30.0 30.0)
  end
  begin
     id 16
     name head
     direction 0.0336554 0.996413 -0.0776455  
     length 1.66415  
     axis 0 0 0   XYZ
    dof rx ry rz
    limits (-20.0 45.0)
           (-30.0 30.0)
           (-30.0 30.0)
  end
  begin
     id 17 
     name lclavicle
     direction 0.94696 0.284418 -0.149576  
     length 3.41447  
     axis 0 0 0   XYZ
    dof ry rz
    limits (-20.0 10.0)
           (0.0 20.0)
  end
  begin
     id 18 
     name lhumerus
     direction 1 -0.000130264 -9.81312e-005   
     length 5.19964   
     axis 180 -30 -90   XYZ
    dof rx ry rz
    limits (-60.0 90.0)
           (-90.0 90.0)
           (-90.0 90.0)
  end
  begin
     id 19
     name lradius
     direction 1 -4.48961e-011 1.43854e-026   
     length 3.32189   
     axis 180 -30 -90   XYZ
    dof rx
    limits (-10.0 170.0)
  end
  begin
     id 20
     name lwrist
     direction 1 -4.48958e-011 3.1502e-026   
     length 1.66095   
     axis -1.97692e-014 90 90   XYZ
    dof ry
    limits (-180.0 0.0)
 end
  begin
     id 21 
     name lhand
     direction 1 -4.48927e-011 6.3004e-026   
     length 0.645616   
     axis -4.02019e-014 90 90   XYZ
    dof rx rz
    limits (-90.0 90.0)
           (-45.0 45.0)
  end
  begin
     id 22 
     name lfingers
     direction 1 -4.4904e-011 1.26008e-025   
     length 0.520512   
     axis -8.04039e-014 90 90   XYZ
    dof rx
    limits (0.0 90.0)
  end
  begin
     id 23
     name lthumb
     direction 0.707107 -6.34947e-011 0.707107   
     length 0.747354   
     axis -90 45 2.85299e-015   XYZ
    dof rx rz
    limits (-45.0 45.0)
           (-45.0 45.0)
  end
  begin
     id 24 
     name rclavicle
     direction -0.909391 0.383475 -0.161107   
     length 3.25176  
     axis 0 0 0   XYZ 
    dof ry rz
    limits (-10.0 20.0)
           (-20.0 0.0)
  end
  begin
     id 25 
     name rhumerus
     direction -1 -4.48965e-011 -1.81384e-027  
     length 5.6595   
     axis 180 30 90   XYZ
    dof rx ry rz
    limits (-90.0 60.0)
           (-90.0 90.0)
           (-90.0 90.0)
  end
  begin
     id 26 
     name rradius
     direction -1 -4.48996e-011 -8.09397e-027   
     length 3.37604   
     axis 180 30 90   XYZ
    dof rx
    limits (-10.0 170.0)
  end
  begin
     id 27 
     name rwrist
     direction -1 -4.48927e-011 -1.56669e-026   
     length 1.68802   
     axis 1.21142e-014 -90 -90   XYZ
    dof ry
    limits (-180.0 0.0)
  end
  begin
     id 28
     name rhand
     direction -1 -4.48912e-011 -3.13339e-026   
     length 0.824702   
     axis 1.99937e-014 -90 -90   XYZ
    dof rx rz
    limits (-90.0 90.0)
           (-45.0 45.0)
  end
  begin
     id 29
     name rfingers
     direction -1 -4.49011e-011 -6.26677e-026   
     length 0.664896   
     axis 3.99874e-014 -90 -90   XYZ
    dof rx
    limits (0.0 90.0)
  end
  begin
     id 30
     name rthumb
     direction -0.707107 -6.34931e-011 0.707107   
     length 0.954662   
     axis -90 -45 -2.85299e-015   XYZ
    dof rx rz
    limits (-45.0 45.0)
           (-45.0 45.0)
  end
:hierarchy
  begin
    root lhipjoint rhipjoint lowerback
    lhipjoint lfemur
    lfemur ltibia
    ltibia lfoot
    lfoot ltoes
    rhipjoint rfemur
    rfemur rtibia
    rtibia rfoot
    rfoot rtoes
    lowerback upperback
    upperback thorax
    thorax lowerneck lclavicle rclavicle
    lowerneck upperneck
    upperneck head
    lclavicle lhumerus
    lhumerus lradius
    lradius lwrist
    lwrist lhand lthumb
    lhand lfingers
    rclavicle rhumerus
    rhumerus rradius
    rradius rwrist
    rwrist rhand rthumb
    rhand rfingers
  end

#!OML:ASF F:\VICON\USERDATA\INSTALL\rory3\rory3.ASF
:FULLY-SPECIFIED
:DEGREES
287
root 9.14421 17.7852 -32.7385 21.2144 -51.8595 -9.8406
lowerback 9.06555 -1.18267 -4.24097
upperback 1.38407 -1.85226 4.79725
thorax -3.34716 -0.876388 7.67644
lowerneck -12.8427 4.04981 -12.0172
upperneck 22.9485 6.29602 7.91026
head 8.58658 2.69774 5.37128
rclavicle -4.00613e-014 -5.65604e-015
rhumerus -30.97 -8.66765 -69.3583
rradius 44.7652
rwrist -19.0933
rhand -11.82 17.2536
rfingers 7.12502
rthumb 14.2305 -12.2389
lclavicle -4.00613e-014 -5.65604e-015
lhumerus -23.8674 27.5509 76.734
lradius 28.7283
lwrist -5.19145
lhand -3.31821 31.7031
lfingers 7.12502
lthumb 22.4085 60.4233
rfemur -14.3739 7.2156 13.7874
rtibia 48.7104
rfoot 6.64791 2.6089
rtoes 8.79324
lfemur -34.052 -3.52702 -18.8821
ltibia 48.8601
lfoot -21.2482 4.2527
ltoes -1.00609
288
root 9.09439 17.7829 -32.5757 21.1315 -52.0862 -9.72645
lowerback 8.8614 -0.963298 -4.07342
upperback 1.58151 -1.55137 4.4618
thorax -3.08993 -0.741961 7.16992
lowerneck -12.4578 3.79865 -12.1255
upperneck 22.1938 5.81836 8.45395
head 8.28417 2.55025 5.4852
rclavicle -4.32232e-014 -1.72943e-014
rhumerus -31.1613 -9.99882 -69.419
rradius 44.9309
rwrist -18.9909
rhand -11.7733 17.2082
rfingers 7.12502
rthumb 14.2754 -12.2811
lclavicle -4.32232e-014 -1.72943e-014
lhumerus -22.9416 26.5763 76.78
lradius 28.3663
lwrist -5.02098
lhand -3.52675 31.4312
lfingers 7.12502
lthumb 22.2084 60.1753
rfemur -15.0379 7.44253 13.2634
rtibia 49.9446
rfoot 8.24934 2.989
rtoes 9.78708
lfemur -33.4442 -3.75716 -19.3315
ltibia 48.6994
lfoot -21.7857 3.71272
ltoes 5.16762
289
root 9.04649 17.7779 -32.4165 20.8913 -52.2876 -9.30839
lowerback 8.95967 -0.885351 -4.52709
upperback 1.50631 -1.49183 4.37955
thorax -3.22247 -0.699885 7.34416
lowerneck -13.1406 3.84228 -11.2627
upperneck 22.7341 5.8373 8.11318
head 8.63188 2.58154 5.28131
rclavicle -2.63141e-014 -4.01048e-014
rhumerus -31.4409 -10.4143 -69.396
rradius 45.0946
rwrist -18.8294
rhand -11.9913 17.2436
rfingers 7.12502
rthumb 14.0654 -12.2605
lclavicle -2.63141e-014 -4.01048e-014
lhumerus -22.8995 26.114 76.7578
lradius 28.4327
lwrist -4.92227
lhand -2.93619 32.0551
lfingers 7.12502
lthumb 22.7752 60.7307
rfemur -15.852 7.54488 12.5285
rtibia 51.2812
rfoot 10.2405 2.64777
rtoes 14.1908
lfemur -32.9675 -3.63636 -20.0132
ltibia 48.5144
lfoot -21.9035 3.15227
ltoes 6.95593
290
root 8.99766 17.7745 -32.2585 20.6509 -52.6268 -8.89895
lowerback 9.03843 -0.784162 -4.98616
upperback 1.48468 -1.40543 4.24021
thorax -3.2947 -0.647673 7.45477
lowerneck -17.0542 3.94981 -8.10249
upperneck 26.8379 6.07243 5.92472
head 11.0275 2.58235 4.3709
rclavicle 4.6118e-014 -3.39425e-014
rhumerus -31.6227 -10.7265 -69.4926
rradius 45.1937
rwrist -18.752
rhand -12.6031 17.2034
rfingers 7.12502
rthumb 13.4758 -12.3407
lclavicle 4.6118e-014 -3.39425e-014
lhumerus -22.9112 26.0064 76.6361
lradius 28.7581
lwrist -5.35184
lhand -2.50206 32.3916
lfingers 7.12502
lthumb 23.1918 61.0153
rfemur -16.8021 7.73194 11.81
rtibia 52.7329
rfoot 12.0423 2.35449
rtoes 15.8498
lfemur -32.4641 -3.33872 -20.7366
ltibia 48.3087
lfoot -21.5961 3.20308
ltoes 1.71655
291
root 8.94942 17.7754 -32.1037 20.3722 -52.9095 -8.54764
lowerback 9.18049 -0.652319 -5.20435
upperback 1.53417 -1.26342 3.97274
thorax -3.34657 -0.573561 7.28088
lowerneck -12.64 3.77039 -11.3539
upperneck 22.2911 5.59191 8.61493
head 8.38974 2.5221 5.40688
rclavicle 1.53561e-014 -2.13694e-014
rhumerus -31.8163 -11.2803 -69.6131
rradius 45.28
rwrist -18.8081
rhand -12.9654 17.1764
rfingers 7.12502
rthumb 13.1265 -12.3904
lclavicle 1.53561e-014 -2.13694e-014
lhumerus -22.6945 25.7803 76.4012
lradius 29.0703
lwrist -5.81007
lhand -2.33467 32.3259
lfingers 7.12502
lthumb 23.3524 60.9293
rfemur -17.7589 7.87218 11.275
rtibia 54.2013
rfoot 13.4386 2.78891
rtoes 12.9119
lfemur -31.8431 -3.4242 -21.3585
ltibia 48.0709
lfoot -21.6097 3.09635
ltoes 1.69138
292
root 8.90534 17.78 -31.9637 20.0741 -52.8494 -7.872
lowerback 9.20807 -0.671669 -5.57917
upperback 1.4909 -1.33227 3.72299
thorax -3.39303 -0.599681 7.23893
lowerneck -13.3105 3.67995 -10.6488
upperneck 22.6595 5.4508 8.29143
head 8.68917 2.47534 5.21133
rclavicle -1.32689e-014 3.24019e-014
rhumerus -31.9997 -11.6064 -69.8139
rradius 45.4254
rwrist -18.8612
rhand -12.8118 17.2897
rfingers 7.12502
rthumb 13.2746 -12.2676
lclavicle -1.32689e-014 3.24019e-014
lhumerus -22.3549 25.4434 76.1468
lradius 29.1861
lwrist -5.9569
lhand -2.24429 32.3646
lfingers 7.12502
lthumb 23.4391 60.957
rfemur -18.9407 7.72843 10.6927
rtibia 55.7475
rfoot 14.4779 2.68132
rtoes 12.7724
lfemur -31.5395 -3.95276 -22.0063
ltibia 47.834
lfoot -21.9434 2.83072
ltoes 5.03218
293
root 8.85661 17.7778 -31.7923 19.9774 -53.2426 -7.8027
lowerback 9.22737 -0.593791 -5.6056
upperback 1.55464 -1.23793 3.54488
thorax -3.35602 -0.556053 7.05105
lowerneck -12.8686 3.70694 -10.8352
upperneck 22.1457 5.42945 8.5807
head 8.41708 2.49303 5.29803
rclavicle 6.66923e-014 -6.10269e-014
rhumerus -32.2181 -11.7546 -69.9509
rradius 45.5264
rwrist -18.7295
rhand -12.5017 17.462
rfingers 7.12502
rthumb 13.5735 -12.0755
lclavicle 6.66923e-014 -6.10269e-014
lhumerus -22.1964 25.105 75.9716
lradius 29.2841
lwrist -5.84171
lhand -2.72607 32.1843
lfingers 7.12502
lthumb 22.9768 60.835
rfemur -19.7785 8.13209 10.2145
rtibia 57.2868
rfoot 14.9582 1.44244
rtoes 16.6753
lfemur -30.8373 -4.0971 -22.5454
ltibia 47.6242
lfoot -22.6196 2.59155
ltoes 10.0458
294
root 8.81732 17.7724 -31.6533 19.7675 -53.1105 -7.29014
lowerback 9.39565 -0.614985 -5.93289
upperback 1.49156 -1.30951 3.41386
thorax -3.49964 -0.57977 7.11482
lowerneck -12.7136 3.66492 -10.7484
upperneck 21.9013 5.32564 8.65386
head 8.31676 2.46494 5.2826
rclavicle 7.35503e-014 -3.73715e-014
rhumerus -32.4003 -12.0732 -70.0466
rradius 45.6024
rwrist -18.7287
rhand -12.5491 17.4848
rfingers 7.12502
rthumb 13.5278 -12.0558
lclavicle 7.35503e-014 -3.73715e-014
lhumerus -21.8062 24.515 75.966
lradius 29.2643
lwrist -5.55805
lhand -3.59334 31.8747
lfingers 7.12502
lthumb 22.1444 60.6264
rfemur -20.8831 7.95847 9.77414
rtibia 58.9146
rfoot 14.7587 -0.125011
rtoes 18.6797
lfemur -30.5969 -3.79849 -23.1669
ltibia 47.4841
lfoot -23.1891 0.82308
ltoes 19.582
295
root 8.7747 17.7657 -31.5097 19.5874 -53.1506 -6.87207
lowerback 9.44263 -0.558579 -6.26843
upperback 1.5995 -1.27674 3.21997
thorax -3.41459 -0.566922 7.09579
lowerneck -12.704 3.59093 -10.5473
upperneck 21.5744 5.19019 8.65647
head 8.22562 2.42842 5.22357
rclavicle -2.20651e-014 0
rhumerus -32.3367 -12.4281 -70.361
rradius 45.6949
rwrist -18.9344
rhand -12.7497 17.4136
rfingers 7.12502
rthumb 13.3345 -12.1397
lclavicle -2.20651e-014 0
lhumerus -20.7618 23.8405 75.9221
lradius 28.7515
lwrist -5.38491
lhand -4.33137 31.5687
lfingers 7.12502
lthumb 21.4357 60.4028
rfemur -22.0148 7.75198 9.38199
rtibia 60.4943
rfoot 13.495 -1.6246
rtoes 15.9992
lfemur -30.2846 -3.7043 -23.7864
ltibia 47.3947
lfoot -23.9254 -0.262641
ltoes 26.5068
296
root 8.73266 17.7574 -31.3606 19.6915 -53.198 -6.85382
lowerback 9.45654 -0.5423 -6.25617
upperback 1.73527 -1.26052 3.04483
thorax -3.2869 -0.569339 6.89616
lowerneck -14.2923 3.58346 -9.20121
upperneck 22.6773 5.16296 7.93611
head 8.9639 2.43586 4.86087
rclavicle -1.59028e-015 4.53229e-014
rhumerus -32.2187 -12.8237 -70.7279
rradius 45.6802
rwrist -18.971
rhand -12.7087 17.4169
rfingers 7.12502
rthumb 13.374 -12.1338
lclavicle -1.59028e-015 4.53229e-014
lhumerus -19.8346 23.4437 75.7173
lradius 28.3813
lwrist -5.42847
lhand -4.74825 31.534
lfingers 7.12502
lthumb 21.0353 60.4132
rfemur -23.1341 7.51881 9.27619
rtibia 62.0384
rfoot 12.0385 -3.05864
rtoes 14.725
lfemur -29.9471 -3.76222 -24.1633
ltibia 47.3512
lfoot -23.6121 -0.505135
ltoes 27.1223
297
root 8.69558 17.749 -31.2117 19.8818 -52.8374 -6.84522
lowerback 9.55265 -0.664008 -5.96343
upperback 1.73127 -1.40234 2.91296
thorax -3.33223 -0.640997 6.60539
lowerneck -16.9488 3.57616 -7.1927
upperneck 25.1304 5.11681 6.61521
head 10.4536 2.38763 4.26965
rclavicle 8.34896e-014 2.26615e-014
rhumerus -32.3001 -13.2163 -70.9928
rradius 45.6311
rwrist -18.8354
rhand -12.661 17.3835
rfingers 7.12502
rthumb 13.42 -12.1643
lclavicle 8.34896e-014 2.26615e-014
lhumerus -19.3253 23.3569 75.4575
lradius 28.4331
lwrist -5.81112
lhand -4.44846 31.9145
lfingers 7.12502
lthumb 21.3233 60.7614
rfemur -24.2765 6.93602 9.3587
rtibia 63.5076
rfoot 10.4894 -4.45572
rtoes 15.0487
lfemur -29.7315 -4.13939 -24.4
ltibia 47.3369
lfoot -23.4467 -0.527088
ltoes 26.3354
298
root 8.65559 17.7456 -31.0645 20.2147 -52.508 -6.96488
lowerback 9.60341 -0.767934 -5.71257
upperback 1.71977 -1.52031 2.82826
thorax -3.36332 -0.700683 6.386
lowerneck -13.5865 3.52127 -9.31302
upperneck 21.6251 4.96425 8.40045
head 8.47266 2.40573 4.94685
rclavicle 5.725e-014 3.45885e-014
rhumerus -32.39 -13.4492 -71.282
rradius 45.6057
rwrist -18.6484
rhand -12.9098 17.2375
rfingers 7.12502
rthumb 13.1802 -12.3259
lclavicle 5.725e-014 3.45885e-014
lhumerus -18.7026 23.2338 75.2404
lradius 28.3162
lwrist -5.94794
lhand -3.99457 32.2857
lfingers 7.12502
lthumb 21.7592 61.0827
rfemur -25.5415 6.45626 9.56204
rtibia 64.9587
rfoot 8.98374 -5.72251
rtoes 15.8396
lfemur -29.5665 -4.51593 -24.5462
ltibia 47.4083
lfoot -23.3948 -0.333626
ltoes 24.4999
